<svg id="svg" version="1.1" width="400" height="363" xmlns="http://www.w3.org/2000/svg" style="display: block;">
    <g id="svgg">
        <path id="path0"
              d="M122.836 11.611 C 113.586 14.404,108.002 93.416,109.982 193.500 C 111.515 270.980,111.288 300.743,109.085 311.283 C 105.269 329.544,100.426 327.340,96.373 305.500 C 94.887 297.489,94.631 281.277,94.043 158.000 C 93.354 13.457,93.443 16.000,89.068 16.000 C 67.091 16.000,30.683 44.680,19.760 70.595 C 11.748 89.607,9.296 132.657,14.725 159.000 C 30.169 233.938,54.922 288.616,87.636 320.058 C 122.160 353.238,170.961 357.920,230.000 333.715 C 247.699 326.459,248.261 325.098,242.284 304.000 C 229.776 259.846,217.168 239.018,176.604 195.500 C 153.746 170.978,149.391 164.334,145.086 147.419 C 137.177 116.347,141.327 92.384,163.517 41.000 C 174.906 14.626,174.888 14.469,160.368 13.015 C 148.821 11.860,124.968 10.967,122.836 11.611 M196.061 22.141 C 195.514 23.438,193.055 29.900,190.597 36.500 C 188.140 43.100,183.210 55.586,179.644 64.247 C 153.572 127.559,154.025 131.274,193.036 174.000 C 226.288 210.419,249.969 252.936,258.481 291.500 C 260.852 302.243,262.792 309.209,263.878 310.876 C 264.886 312.425,270.033 309.294,278.724 301.847 C 281.351 299.596,286.425 295.247,290.000 292.182 C 333.456 254.930,374.134 201.973,381.931 172.500 C 393.732 127.890,336.203 68.586,249.000 35.467 C 247.075 34.736,243.025 33.183,240.000 32.015 C 213.410 21.748,197.715 18.221,196.061 22.141 "
              stroke="none" fill="#00bfb2" fill-rule="evenodd"></path>
    </g>
</svg>