<?xml version="1.0" encoding="utf-8"?>
<!-- Generator: Adobe Illustrator 15.0.0, SVG Export Plug-In . SVG Version: 6.00 Build 0)  -->
<!DOCTYPE svg PUBLIC "-//W3C//DTD SVG 1.1//EN" "http://www.w3.org/Graphics/SVG/1.1/DTD/svg11.dtd">
<svg version="1.1" id="Layer_1" xmlns="http://www.w3.org/2000/svg" xmlns:xlink="http://www.w3.org/1999/xlink" x="0px" y="0px"
	 width="25.714px" height="24px" viewBox="1011.143 884 25.714 24" enable-background="new 1011.143 884 25.714 24"
	 xml:space="preserve">
<path fill="#FFFFFF" d="M1019.085,896c-1.446,0.044-2.629,0.616-3.549,1.714h-1.795c-0.732,0-1.348-0.18-1.848-0.542
	c-0.5-0.362-0.75-0.891-0.75-1.587c0-3.151,0.553-4.727,1.661-4.727c0.054,0,0.248,0.094,0.583,0.281
	c0.335,0.188,0.77,0.377,1.306,0.569c0.535,0.192,1.067,0.289,1.593,0.289c0.599,0,1.192-0.104,1.781-0.309
	c-0.044,0.33-0.067,0.625-0.067,0.884C1018,893.812,1018.361,894.955,1019.085,896z M1033.428,904.531
	c0,1.071-0.325,1.917-0.977,2.537c-0.652,0.621-1.519,0.932-2.598,0.932h-11.706c-1.08,0-1.946-0.311-2.599-0.932
	c-0.651-0.62-0.977-1.466-0.977-2.537c0-0.474,0.016-0.936,0.046-1.386c0.032-0.451,0.094-0.938,0.188-1.46
	c0.094-0.523,0.212-1.008,0.355-1.453c0.143-0.447,0.334-0.882,0.576-1.306c0.241-0.425,0.518-0.786,0.831-1.085
	c0.312-0.3,0.694-0.538,1.145-0.717c0.451-0.179,0.948-0.268,1.493-0.268c0.09,0,0.282,0.096,0.576,0.287
	c0.294,0.192,0.621,0.407,0.978,0.644c0.357,0.236,0.835,0.451,1.433,0.643c0.599,0.192,1.201,0.288,1.808,0.288
	c0.606,0,1.209-0.096,1.808-0.288c0.599-0.191,1.076-0.406,1.434-0.643s0.683-0.451,0.978-0.644
	c0.295-0.191,0.486-0.287,0.575-0.287c0.545,0,1.043,0.089,1.494,0.268c0.45,0.179,0.832,0.417,1.145,0.717
	c0.313,0.299,0.589,0.66,0.831,1.085c0.24,0.424,0.434,0.858,0.575,1.306c0.143,0.445,0.262,0.93,0.354,1.453
	c0.095,0.522,0.156,1.009,0.188,1.46C1033.412,903.596,1033.428,904.058,1033.428,904.531z M1019.714,887.429
	c0,0.946-0.335,1.755-1.004,2.424c-0.67,0.669-1.478,1.004-2.424,1.004c-0.946,0-1.754-0.335-2.424-1.004s-1.004-1.478-1.004-2.424
	s0.335-1.754,1.004-2.424c0.669-0.669,1.478-1.004,2.424-1.004c0.947,0,1.754,0.335,2.424,1.004
	C1019.379,885.674,1019.714,886.482,1019.714,887.429z M1029.143,892.571c0,1.42-0.502,2.632-1.507,3.636
	c-1.004,1.004-2.216,1.506-3.636,1.506s-2.631-0.502-3.636-1.506c-1.005-1.004-1.507-2.216-1.507-3.636
	c0-1.419,0.502-2.631,1.507-3.636c1.004-1.004,2.216-1.507,3.636-1.507s2.632,0.502,3.636,1.507
	C1028.641,889.94,1029.143,891.152,1029.143,892.571z M1036.857,895.584c0,0.697-0.251,1.225-0.751,1.587s-1.116,0.542-1.848,0.542
	h-1.794c-0.92-1.098-2.104-1.669-3.549-1.714c0.723-1.045,1.084-2.188,1.084-3.429c0-0.258-0.022-0.554-0.067-0.884
	c0.59,0.205,1.184,0.309,1.782,0.309c0.525,0,1.058-0.097,1.593-0.289c0.536-0.192,0.972-0.381,1.306-0.569
	c0.335-0.188,0.529-0.281,0.583-0.281C1036.304,890.857,1036.857,892.433,1036.857,895.584z M1035.143,887.429
	c0,0.946-0.334,1.755-1.004,2.424s-1.479,1.004-2.424,1.004c-0.947,0-1.755-0.335-2.425-1.004s-1.005-1.478-1.005-2.424
	s0.335-1.754,1.005-2.424c0.67-0.669,1.478-1.004,2.425-1.004c0.945,0,1.754,0.335,2.424,1.004
	C1034.809,885.674,1035.143,886.482,1035.143,887.429z"/>
</svg>
